<svg width="1010" height="1014" viewBox="0 0 1010 1014" fill="none" xmlns="http://www.w3.org/2000/svg">
<ellipse cx="758.709" cy="562.581" rx="251.292" ry="245.977" fill="#F7F7F7"/>
<rect x="657.226" y="48.7085" width="198.134" height="375.054" fill="#F7F7F7"/>
<rect x="623.398" width="265.79" height="63.3208" rx="3" fill="#F7F7F7"/>
<rect x="686.221" y="277.637" width="140.144" height="97.4166" fill="#FE9F9B"/>
<path d="M956.843 565.016C956.843 680.69 867.054 774.462 756.293 774.462C645.532 774.462 555.743 680.69 555.743 565.016C555.743 449.342 645.532 355.57 756.293 355.57C867.054 355.57 956.843 449.342 956.843 565.016Z" fill="#FE9F9B"/>
<ellipse cx="871.914" cy="495.821" rx="16.9139" ry="17.0479" fill="white"/>
<ellipse cx="822.914" cy="600.821" rx="16.9139" ry="17.0479" fill="white"/>
<ellipse cx="816.201" cy="494.179" rx="24.1627" ry="24.3542" fill="white"/>
<ellipse cx="743.995" cy="493.998" rx="28.9952" ry="29.225" fill="white"/>
<circle cx="801.5" cy="655.273" r="21.5" fill="white"/>
<circle cx="773.5" cy="709.273" r="21.5" fill="white"/>
<circle cx="848" cy="546.773" r="24" fill="white"/>
<path d="M382.318 235.408C393.842 215.29 422.857 215.29 434.381 235.408L736.265 762.429C747.721 782.428 733.281 807.34 710.233 807.34H106.466C83.4174 807.34 68.978 782.428 80.4341 762.429L382.318 235.408Z" fill="#F7F7F7"/>
<path d="M366.157 360.391C371.216 351.584 381.099 346.713 391.165 348.066L434.976 353.954C442.574 354.975 449.283 359.425 453.179 366.028L658.432 713.963C659.236 715.326 660.168 716.61 661.215 717.797L681.001 740.233C695.238 756.376 683.776 781.768 662.251 781.768H161.089C140.067 781.768 128.432 757.4 141.648 741.052L160.642 717.556C161.473 716.528 162.22 715.437 162.879 714.291L366.157 360.391Z" fill="#56B2DB"/>
<rect x="309.282" y="29.2249" width="198.134" height="375.054" fill="#F7F7F7"/>
<rect x="338.277" y="321.475" width="140.144" height="97.4166" fill="#56B2DB"/>
<rect x="275.456" width="265.79" height="63.3208" rx="3" fill="#F7F7F7"/>
<ellipse cx="508.5" cy="715.273" rx="17.5" ry="16.5" fill="white"/>
<ellipse cx="505.5" cy="650.773" rx="29.5" ry="29" fill="white"/>
<ellipse cx="395.5" cy="664.773" rx="29.5" ry="29" fill="#C2C2C2"/>
<ellipse cx="740.5" cy="369.773" rx="29.5" ry="29" fill="#C2C2C2"/>
<ellipse cx="752.5" cy="568.773" rx="29.5" ry="29" fill="#C2C2C2"/>
<ellipse cx="223.5" cy="698.773" rx="29.5" ry="29" fill="#C2C2C2"/>
<ellipse cx="354.5" cy="600.773" rx="17.5" ry="17" fill="#C2C2C2"/>
<ellipse cx="437.5" cy="501.773" rx="17.5" ry="17" fill="#C2C2C2"/>
<ellipse cx="674.5" cy="541.773" rx="17.5" ry="17" fill="#C2C2C2"/>
<ellipse cx="358" cy="524.773" rx="27" ry="26" fill="#C2C2C2"/>
<ellipse cx="713" cy="632.773" rx="27" ry="26" fill="#C2C2C2"/>
<ellipse cx="630" cy="735.773" rx="27" ry="26" fill="#C2C2C2"/>
<ellipse cx="889" cy="658.773" rx="27" ry="26" fill="#C2C2C2"/>
<ellipse cx="395" cy="749.273" rx="18" ry="17.5" fill="#C2C2C2"/>
<ellipse cx="916" cy="571.273" rx="18" ry="17.5" fill="#C2C2C2"/>
<ellipse cx="834" cy="424.273" rx="18" ry="17.5" fill="#C2C2C2"/>
<ellipse cx="407" cy="424.273" rx="18" ry="17.5" fill="#C2C2C2"/>
<ellipse cx="648" cy="461.273" rx="18" ry="17.5" fill="#C2C2C2"/>
<circle cx="505" cy="581.773" r="21" fill="white"/>
<circle cx="560" cy="714.773" r="21" fill="white"/>
<circle cx="455" cy="714.773" r="21" fill="white"/>
<ellipse cx="458" cy="550.773" rx="16" ry="17" fill="white"/>
<ellipse cx="504.914" cy="524.821" rx="16.9139" ry="17.0479" fill="white"/>
<ellipse cx="297" cy="753.273" rx="14" ry="13.5" fill="white"/>
<ellipse cx="294.5" cy="703.773" rx="19.5" ry="19" fill="white"/>
<circle cx="294" cy="643.773" r="17" fill="white"/>
<circle cx="339" cy="752.773" r="17" fill="white"/>
<circle cx="253" cy="752.773" r="17" fill="white"/>
<ellipse cx="256" cy="618.773" rx="13" ry="14" fill="white"/>
<circle cx="294" cy="597.773" r="14" fill="white"/>
</svg>
