<svg width="1763" height="810" viewBox="0 0 1763 810" fill="none" xmlns="http://www.w3.org/2000/svg">
<circle cx="400" cy="400" r="400" fill="#555555"/>
<path d="M800 400C800 620.914 620.914 800 400 800C179.086 800 0 620.914 0 400C0 179.086 179.086 0 400 0C620.914 0 800 179.086 800 400ZM51.0674 400C51.0674 592.71 207.29 748.933 400 748.933C592.71 748.933 748.933 592.71 748.933 400C748.933 207.29 592.71 51.0674 400 51.0674C207.29 51.0674 51.0674 207.29 51.0674 400Z" fill="#272727"/>
<circle cx="1363" cy="410" r="400" fill="#555555"/>
<path d="M1763 410C1763 630.914 1583.91 810 1363 810C1142.09 810 963 630.914 963 410C963 189.086 1142.09 10 1363 10C1583.91 10 1763 189.086 1763 410ZM1014.07 410C1014.07 602.71 1170.29 758.933 1363 758.933C1555.71 758.933 1711.93 602.71 1711.93 410C1711.93 217.29 1555.71 61.0674 1363 61.0674C1170.29 61.0674 1014.07 217.29 1014.07 410Z" fill="#272727"/>
<mask id="mask0_106_41" style="mask-type:alpha" maskUnits="userSpaceOnUse" x="50" y="50" width="700" height="700">
<circle cx="400" cy="400" r="350" fill="#D9D9D9"/>
</mask>
<g mask="url(#mask0_106_41)">
<path d="M703.328 208.066C606.928 191.266 570.829 281.065 523.829 328.066C496.329 355.565 477.728 387.166 471.328 461.566C464.928 535.966 553.662 592.899 598.828 612.066C624.328 619.566 703.128 613.366 814.328 528.566C925.528 443.766 914.662 348.899 895.328 312.066C871.495 284.399 799.728 224.866 703.328 208.066Z" fill="#FFF2B7" stroke="#717171" stroke-width="7"/>
<ellipse cx="705" cy="340" rx="67" ry="60" fill="#FF4F4F"/>
<ellipse cx="679.5" cy="334" rx="25.5" ry="23" fill="#F4A1A1"/>
<path d="M766 388.686C748.8 419.886 688.833 412.352 661 404.686C666.2 413.086 705.167 422.186 724 424.686C702 422.852 663.8 421.386 687 430.186C710.2 438.986 747 433.852 762.5 430.186C803.7 422.186 812.667 394.852 812 382.186C808.833 377.019 802 369.786 800 382.186C798 394.586 795 401.686 792.5 404.686C729.7 438.286 738 425.352 750 414.686C776 400.186 788.667 381.519 790 370.686C789.167 363.686 783.2 357.486 766 388.686Z" fill="#A75555"/>
<path d="M637.996 373.015C619.18 364.198 621.271 329.009 624.669 312.517C619.979 315.865 616.173 338.891 615.438 349.948C615.664 337.074 615.057 314.785 610.822 328.624C606.588 342.463 610.982 363.684 613.709 372.565C619.94 396.238 636.191 400.411 643.537 399.539C646.423 397.498 650.372 393.245 643.079 392.555C635.785 391.865 631.538 390.39 629.697 389.05C607.741 353.785 615.585 358.121 622.252 364.698C631.685 379.275 643.033 385.933 649.389 386.295C653.431 385.543 656.812 381.833 637.996 373.015Z" fill="#A75555"/>
<path d="M613.5 518C591.9 536.4 563.167 521.333 551.5 511.5C541.9 505.116 544.167 496.84 546.5 493.5C548.833 489.333 556.1 483.5 566.5 493.5C576.9 503.5 597.167 499.333 606 496C617.5 495.667 635.1 499.6 613.5 518Z" fill="#DCBD34"/>
<path d="M616.5 509.542C615.167 505.709 611.3 498.642 606.5 501.042C601.7 503.442 604.5 511.375 606.5 515.042C606.833 516.375 606.6 518.842 603 518.042C601.167 517.542 597 514.342 595 505.542C594.833 504.209 593.5 501.942 589.5 503.542C585.5 505.142 586.417 513.542 587.584 518.542C587.751 519.708 586.984 521.542 582.584 519.542C578.184 517.542 578.167 509.709 578.5 505.042C578.333 503.709 577.2 501.242 574 502.042C570.8 502.842 570 512.042 570 516.542C569.833 517.542 568.6 518.942 565 516.542C561.4 514.142 562.167 503.542 563 498.542C563.167 497.209 562.8 494.642 560 495.042C557.2 495.442 554.167 500.542 553 503.042" stroke="#8C7613" stroke-width="3" stroke-linecap="round"/>
<path d="M547.168 418.204C521.142 406.901 522.032 374.469 525.73 359.666C527.24 348.237 535.669 346.632 539.696 347.258C544.464 347.52 552.899 351.479 548.494 365.218C544.089 378.957 556.746 395.324 563.626 401.791C568.984 411.971 573.194 429.507 547.168 418.204Z" fill="#DCBD34"/>
<path d="M556.084 417.177C558.94 414.294 563.585 407.712 559.318 404.458C555.051 401.203 549.158 407.207 546.746 410.617C545.695 411.502 543.377 412.378 542.512 408.793C542.154 406.927 543.195 401.777 550.218 396.11C551.342 395.374 552.791 393.179 549.594 390.291C546.398 387.403 539.258 391.922 535.281 395.169C534.306 395.832 532.323 395.95 532.183 391.119C532.044 386.288 539.071 382.826 543.408 381.072C544.532 380.336 546.249 378.233 544.123 375.711C541.996 373.19 533.382 376.518 529.341 378.498C528.37 378.788 526.57 378.297 527.142 374.008C527.713 369.719 537.57 365.744 542.427 364.293C543.697 363.856 545.841 362.398 544.25 360.059C542.659 357.721 536.744 357.24 533.986 357.292" stroke="#8C7613" stroke-width="3" stroke-linecap="round"/>
<path d="M798.429 497.7C793.38 525.621 761.605 532.175 746.349 531.961C734.877 533.106 731.386 525.268 731.074 521.205C730.239 516.503 732.163 507.386 746.546 508.531C760.928 509.676 773.965 493.61 778.686 485.434C787.371 477.888 803.478 469.778 798.429 497.7Z" fill="#DCBD34"/>
<path d="M795.39 489.255C791.929 487.135 784.46 484.119 782.268 489.017C780.076 493.916 787.269 498.278 791.14 499.847C792.242 500.667 793.625 502.723 790.333 504.386C788.598 505.161 783.347 505.326 776.223 499.786C775.25 498.86 772.782 497.951 770.701 501.724C768.621 505.497 774.654 511.413 778.725 514.542C779.593 515.339 780.162 517.243 775.49 518.484C770.819 519.725 765.842 513.676 763.143 509.855C762.169 508.929 759.729 507.739 757.76 510.386C755.792 513.033 761.003 520.657 763.855 524.138C764.359 525.017 764.293 526.882 759.987 527.306C755.681 527.731 749.557 519.045 747.033 514.649C746.317 513.512 744.407 511.759 742.494 513.843C740.582 515.927 741.467 521.794 742.149 524.468" stroke="#8C7613" stroke-width="3" stroke-linecap="round"/>
<circle cx="599.5" cy="298.5" r="7.5" fill="#003E86"/>
<circle cx="518.5" cy="442.5" r="7.5" fill="#003E86"/>
<circle cx="584.5" cy="564.5" r="7.5" fill="#003E86"/>
<circle cx="726.5" cy="485.5" r="7.5" fill="#003E86"/>
<circle cx="726.5" cy="255.5" r="7.5" fill="#003E86"/>
<circle cx="671.5" cy="564.5" r="7.5" fill="#003E86"/>
<circle cx="624.5" cy="450.5" r="7.5" fill="#003E86"/>
</g>
<mask id="mask1_106_41" style="mask-type:alpha" maskUnits="userSpaceOnUse" x="1013" y="60" width="700" height="700">
<circle cx="1363" cy="410" r="350" fill="#D9D9D9"/>
</mask>
<g mask="url(#mask1_106_41)">
<path d="M1079.33 198.066C982.928 181.266 946.829 271.065 899.829 318.066C872.329 345.565 853.728 377.166 847.328 451.566C840.928 525.966 929.662 582.899 974.828 602.066C1000.33 609.566 1079.13 603.366 1190.33 518.566C1301.53 433.766 1290.66 338.899 1271.33 302.066C1247.5 274.399 1175.73 214.866 1079.33 198.066Z" fill="#FFF2B7" stroke="#717171" stroke-width="7"/>
<ellipse cx="1081" cy="330" rx="67" ry="60" fill="#FF4F4F"/>
<ellipse cx="1055.5" cy="324" rx="25.5" ry="23" fill="#F4A1A1"/>
<path d="M1142 378.686C1124.8 409.886 1064.83 402.352 1037 394.686C1042.2 403.086 1081.17 412.186 1100 414.686C1078 412.852 1039.8 411.386 1063 420.186C1086.2 428.986 1123 423.852 1138.5 420.186C1179.7 412.186 1188.67 384.852 1188 372.186C1184.83 367.019 1178 359.786 1176 372.186C1174 384.586 1171 391.686 1168.5 394.686C1105.7 428.286 1114 415.352 1126 404.686C1152 390.186 1164.67 371.519 1166 360.686C1165.17 353.686 1159.2 347.486 1142 378.686Z" fill="#A75555"/>
<path d="M1014 363.015C995.18 354.198 997.271 319.009 1000.67 302.517C995.979 305.865 992.173 328.891 991.438 339.948C991.664 327.074 991.057 304.785 986.822 318.624C982.588 332.463 986.982 353.684 989.709 362.565C995.94 386.238 1012.19 390.411 1019.54 389.539C1022.42 387.498 1026.37 383.245 1019.08 382.555C1011.79 381.865 1007.54 380.39 1005.7 379.05C983.741 343.785 991.585 348.121 998.252 354.698C1007.68 369.275 1019.03 375.933 1025.39 376.295C1029.43 375.543 1032.81 371.833 1014 363.015Z" fill="#A75555"/>
<path d="M1174.43 487.7C1169.38 515.621 1137.61 522.175 1122.35 521.961C1110.88 523.106 1107.39 515.268 1107.07 511.205C1106.24 506.503 1108.16 497.386 1122.55 498.531C1136.93 499.676 1149.97 483.61 1154.69 475.434C1163.37 467.888 1179.48 459.778 1174.43 487.7Z" fill="#DCBD34"/>
<path d="M1171.39 479.255C1167.93 477.135 1160.46 474.119 1158.27 479.017C1156.08 483.916 1163.27 488.278 1167.14 489.847C1168.24 490.667 1169.63 492.723 1166.33 494.386C1164.6 495.161 1159.35 495.326 1152.22 489.786C1151.25 488.86 1148.78 487.951 1146.7 491.724C1144.62 495.497 1150.65 501.413 1154.72 504.542C1155.59 505.339 1156.16 507.243 1151.49 508.484C1146.82 509.725 1141.84 503.676 1139.14 499.855C1138.17 498.929 1135.73 497.739 1133.76 500.386C1131.79 503.033 1137 510.657 1139.85 514.138C1140.36 515.017 1140.29 516.882 1135.99 517.306C1131.68 517.731 1125.56 509.045 1123.03 504.649C1122.32 503.512 1120.41 501.759 1118.49 503.843C1116.58 505.927 1117.47 511.794 1118.15 514.468" stroke="#8C7613" stroke-width="3" stroke-linecap="round"/>
<path d="M1244 350.15C1259.34 374.021 1240.56 400.476 1229.25 410.72C1221.64 419.378 1213.74 416.022 1210.74 413.262C1206.93 410.392 1202.12 402.409 1213.42 393.443C1224.73 384.477 1223.32 363.834 1221.2 354.634C1222.41 343.193 1228.66 326.279 1244 350.15Z" fill="#DCBD34"/>
<path d="M1236.02 346.044C1232.05 346.851 1224.52 349.736 1226.26 354.814C1227.99 359.893 1236.23 358.181 1240.13 356.69C1241.5 356.539 1243.91 357.101 1242.64 360.561C1241.9 362.311 1238.17 366.011 1229.18 366.813C1227.83 366.8 1225.41 367.817 1226.46 371.996C1227.51 376.174 1235.96 376.391 1241.07 375.905C1242.24 375.896 1243.96 376.902 1241.39 380.994C1238.82 385.086 1231.05 384.053 1226.47 383.098C1225.13 383.084 1222.53 383.877 1222.89 387.155C1223.26 390.433 1232.27 392.459 1236.73 393.062C1237.7 393.361 1238.92 394.771 1236.06 398.017C1233.2 401.263 1222.8 399.083 1217.95 397.587C1216.65 397.243 1214.06 397.262 1214.08 400.091C1214.1 402.919 1218.75 406.609 1221.07 408.1" stroke="#8C7613" stroke-width="3" stroke-linecap="round"/>
<circle cx="1102.5" cy="475.5" r="7.5" fill="#003E86"/>
<circle cx="1205.5" cy="322.5" r="7.5" fill="#003E86"/>
<circle cx="1102.5" cy="245.5" r="7.5" fill="#003E86"/>
<circle cx="1047.5" cy="554.5" r="7.5" fill="#003E86"/>
</g>
</svg>
